{
    "asset" : {
        "generator" : "Khronos glTF Blender I/O v1.5.17",
        "version" : "2.0"
    },
    "extensionsUsed" : [
        "KHR_materials_clearcoat"
    ],
    "scene" : 0,
    "scenes" : [
        {
            "name" : "Scene",
            "nodes" : [
                2
            ]
        }
    ],
    "nodes" : [
        {
            "mesh" : 0,
            "name" : "Object_3"
        },
        {
            "children" : [
                0
            ],
            "name" : "A45.obj.cleaner.materialmerger.gles"
        },
        {
            "children" : [
                1
            ],
            "name" : "Sketchfab_model",
            "rotation" : [
                -0.7071068286895752,
                0,
                0,
                0.7071068286895752
            ]
        }
    ],
    "materials" : [
        {
            "doubleSided" : true,
            "extensions" : {
                "KHR_materials_clearcoat" : {
                    "clearcoatFactor" : 1,
                    "clearcoatRoughnessFactor" : 0.03999999910593033
                }
            },
            "name" : "Material.004",
            "normalTexture" : {
                "index" : 0,
                "scale" : 0.28747817873954773
            },
            "pbrMetallicRoughness" : {
                "baseColorFactor" : [
                    0.27592355012893677,
                    0.27592355012893677,
                    0.27592355012893677,
                    1
                ],
                "roughnessFactor" : 0.43340232968330383
            }
        }
    ],
    "meshes" : [
        {
            "name" : "Object_1",
            "primitives" : [
                {
                    "attributes" : {
                        "POSITION" : 0,
                        "NORMAL" : 1,
                        "TEXCOORD_0" : 2
                    },
                    "indices" : 3,
                    "material" : 0
                }
            ]
        }
    ],
    "textures" : [
        {
            "sampler" : 0,
            "source" : 0
        }
    ],
    "images" : [
        {
            "bufferView" : 4,
            "mimeType" : "image/png",
            "name" : "Material.004_normal"
        }
    ],
    "accessors" : [
        {
            "bufferView" : 0,
            "componentType" : 5126,
            "count" : 40368,
            "max" : [
                4.810923099517822,
                12.724115371704102,
                7.687969207763672
            ],
            "min" : [
                -4.813510894775391,
                -10.664102554321289,
                0.7924519777297974
            ],
            "type" : "VEC3"
        },
        {
            "bufferView" : 1,
            "componentType" : 5126,
            "count" : 40368,
            "type" : "VEC3"
        },
        {
            "bufferView" : 2,
            "componentType" : 5126,
            "count" : 40368,
            "type" : "VEC2"
        },
        {
            "bufferView" : 3,
            "componentType" : 5123,
            "count" : 185670,
            "type" : "SCALAR"
        }
    ],
    "bufferViews" : [
        {
            "buffer" : 0,
            "byteLength" : 484416,
            "byteOffset" : 0
        },
        {
            "buffer" : 0,
            "byteLength" : 484416,
            "byteOffset" : 484416
        },
        {
            "buffer" : 0,
            "byteLength" : 322944,
            "byteOffset" : 968832
        },
        {
            "buffer" : 0,
            "byteLength" : 371340,
            "byteOffset" : 1291776
        },
        {
            "buffer" : 0,
            "byteLength" : 292194,
            "byteOffset" : 1663116
        }
    ],
    "samplers" : [
        {
            "magFilter" : 9729,
            "minFilter" : 9987
        }
    ],
    "buffers" : [
        {
            "byteLength" : 1955312,
            "uri" : "data:application/octet-stream;base64,"
        }
    ]
}
